<?xml version="1.0" encoding="UTF-8" standalone="no"?>
<!-- Created with Inkscape (http://www.inkscape.org/) -->

<svg
   xmlns:dc="http://purl.org/dc/elements/1.1/"
   xmlns:cc="http://creativecommons.org/ns#"
   xmlns:rdf="http://www.w3.org/1999/02/22-rdf-syntax-ns#"
   xmlns:svg="http://www.w3.org/2000/svg"
   xmlns="http://www.w3.org/2000/svg"
   xmlns:sodipodi="http://sodipodi.sourceforge.net/DTD/sodipodi-0.dtd"
   xmlns:inkscape="http://www.inkscape.org/namespaces/inkscape"
   width="133.72275mm"
   height="39.42897mm"
   viewBox="0 0 473.82076 139.70895"
   id="svg81672"
   version="1.1"
   inkscape:version="0.91 r13725"
   sodipodi:docname="layer2.svg">
  <defs
     id="defs81674" />
  <sodipodi:namedview
     id="base"
     pagecolor="#ffffff"
     bordercolor="#666666"
     borderopacity="1.0"
     inkscape:pageopacity="0.0"
     inkscape:pageshadow="2"
     inkscape:zoom="1.979899"
     inkscape:cx="211.57971"
     inkscape:cy="2.0949704"
     inkscape:document-units="px"
     inkscape:current-layer="layer1"
     showgrid="false"
     fit-margin-top="0"
     fit-margin-left="0"
     fit-margin-right="0"
     fit-margin-bottom="0.1"
     inkscape:window-width="1887"
     inkscape:window-height="1068"
     inkscape:window-x="33"
     inkscape:window-y="12"
     inkscape:window-maximized="1" />
  <metadata
     id="metadata81677">
    <rdf:RDF>
      <cc:Work
         rdf:about="">
        <dc:format>image/svg+xml</dc:format>
        <dc:type
           rdf:resource="http://purl.org/dc/dcmitype/StillImage" />
        <dc:title></dc:title>
      </cc:Work>
    </rdf:RDF>
  </metadata>
  <g
     inkscape:label="Layer 1"
     inkscape:groupmode="layer"
     id="layer1"
     transform="translate(-38.825316,-102.94202)">
    <path
       inkscape:connector-curvature="0"
       id="path4993-5-3"
       d="m 276.74236,165.87073 c 1.07177,-1.40238 3.55591,-3.08752 5.79462,-3.94523 0.73797,-0.28272 1.44636,-0.56625 1.57618,-0.63083 0.12967,-0.0645 -0.28715,-0.47778 -0.92351,-0.91646 -3.88342,-2.677 -3.59694,-5.44133 0.64911,-8.05829 1.28899,-0.79443 2.50854,-1.31612 4.80311,-2.05752 0.64296,-0.20776 1.17123,-0.41773 1.17535,-0.46708 0.004,-0.0493 -0.38002,-0.35779 -0.85198,-0.68442 -2.44844,-1.69451 -2.79142,-4.17372 -0.90952,-6.00535 2.03414,-1.97983 6.37847,-3.45919 12.07958,-4.14624 2.23165,-0.26891 2.47316,-0.281 5.71852,-0.28616 3.33499,-0.005 4.21387,0.0373 6.79497,0.32966 1.43568,0.1626 4.27659,0.67926 5.60717,1.02036 0,0 1.02008,0.26151 1.02008,0.26151 0,0 1.47128,-0.47364 1.47128,-0.47364 1.53835,-0.49524 4.16077,-1.11794 5.88065,-1.39748 0.56043,-0.0911 2.05496,-0.26346 3.32004,-0.38296 1.97372,-0.18641 2.72858,-0.21637 5.38512,-0.21388 3.37246,0.003 4.80204,0.0924 7.88012,0.49265 4.59813,0.5979 8.72283,1.85438 11.07564,3.39109 1.56766,1.02389 1.79755,1.29252 2.21678,2.60335 0.48933,1.53004 0.34973,1.9386 -1.22971,3.53491 -0.32044,0.32387 -0.48055,0.60698 -0.35465,0.62798 0.12596,0.0212 1.10977,0.10281 2.18719,0.18174 5.79592,0.4246 12.04964,1.63454 15.94092,3.0969 4.01328,1.50825 5.8373,2.79967 6.6783,4.7653 0.49834,1.16361 0.49036,1.41116 -0.0839,2.52683 -1.09206,2.12156 -5.90559,4.27426 -12.03334,5.33287 -0.47546,0.0821 -0.72776,0.19603 -0.57962,0.26188 0.14426,0.0641 0.99001,0.40703 1.88241,0.76314 1.45677,0.58131 3.55237,1.67352 4.97478,2.59529 1.39509,0.90409 2.62583,2.33294 3.1248,3.64167 0.55592,1.45813 0.51502,2.17917 -0.19908,3.31401 -1.50924,2.39841 -5.29399,4.20764 -10.82583,5.13087 -6.59616,1.10085 -15.40094,0.76593 -22.45905,-0.84858 -0.87085,-0.1992 -1.7126,-0.36176 -1.87218,-0.36161 -0.15958,9e-5 -0.51531,0.59721 -0.79235,1.33169 -1.46147,3.87461 -7.56741,6.85557 -16.514,7.9369 -3.17086,0.38325 -8.55387,0.37969 -11.83634,-0.008 -3.56236,-0.42051 -6.38751,-1.01026 -9.01323,-1.87847 -5.84544,-1.9328 -9.03275,-4.29216 -10.11894,-7.40431 0,0 -0.36685,-1.05109 -0.36685,-1.05109 0,0 -1.70181,-0.26829 -1.70181,-0.26829 -6.0983,-0.96134 -11.1229,-2.97674 -13.64926,-5.43392 -1.91834,-1.86587 -2.27826,-4.44579 -0.92157,-6.22098 0,0 0,0 0,0 0,0 -2e-5,1.3e-4 -2e-5,1.3e-4"
       style="fill:#e6e6e6;fill-opacity:1;stroke:none;stroke-width:0.25470039;stroke-linecap:round;stroke-miterlimit:4;stroke-dasharray:0.25470036, 0.50940074;stroke-dashoffset:0;stroke-opacity:1" />
    <path
       inkscape:connector-curvature="0"
       id="path8181-5-7-3-7"
       d="m 331.69628,128.94089 c -29.86675,0 -52.9827,-6.18235 -51.75024,-13.13554 1.11792,-6.30681 22.23505,-11.00483 47.25711,-11.00483 25.02207,0 47.88804,4.69802 51.35367,11.00483 3.8208,6.95319 -16.99377,13.13554 -46.86054,13.13554 0,0 0,0 0,0"
       style="fill:none;fill-opacity:1;stroke:#000000;stroke-width:1.20341289;stroke-linecap:round;stroke-miterlimit:4;stroke-dasharray:1.20341292, 2.40682585;stroke-dashoffset:0;stroke-opacity:1" />
    <path
       inkscape:connector-curvature="0"
       id="path8181-5-5-6"
       d="m 210.31854,127.1538 c -29.50811,0 -47.38836,-6.03778 -40.58719,-12.83557 6.17556,-6.17247 30.85981,-10.7745 55.62965,-10.7745 24.76984,0 43.59,4.60203 41.90035,10.7745 -1.86086,6.79779 -27.4347,12.83557 -56.94281,12.83557 0,0 0,0 0,0"
       style="fill:none;fill-opacity:1;stroke:#000000;stroke-width:1.20341289;stroke-linecap:round;stroke-miterlimit:4;stroke-dasharray:1.20341292, 2.40682585;stroke-dashoffset:0;stroke-opacity:1" />
    <path
       inkscape:connector-curvature="0"
       id="path8181-5-3-6-6"
       d="m 422.04653,241.31495 c -23.67615,0 -47.56927,-4.3249 -65.58009,-11.67906 -17.00823,-6.94479 -26.71513,-15.76867 -27.65627,-24.3107 -1.75469,-15.92587 27.28265,-27.27284 64.64423,-27.27284 37.36157,1e-5 76.65564,11.34698 89.29665,27.27284 6.78016,8.54203 5.04933,17.36591 -5.68137,24.31069 -11.36326,7.35416 -31.347,11.67907 -55.02315,11.67907 0,0 0,0 0,0"
       style="fill:none;fill-opacity:1;stroke:#000000;stroke-width:1.13187647;stroke-linecap:round;stroke-miterlimit:4;stroke-dasharray:1.13187646, 2.26375294;stroke-dashoffset:0;stroke-opacity:1" />
    <path
       inkscape:connector-curvature="0"
       id="path8181-2-3"
       d="m 261.58816,148.42096 c -13.47827,0 -25.75119,-1.59783 -33.9017,-4.36816 -7.88403,-2.67976 -11.07658,-6.17734 -9.14391,-9.66628 1.84901,-3.33796 8.2526,-6.40626 17.64209,-8.58982 9.1162,-2.12 20.52855,-3.28415 31.93195,-3.28415 11.40341,0 22.22906,1.16415 30.27687,3.28415 8.28906,2.18356 13.14633,5.25186 13.31314,8.58982 0.17437,3.48894 -4.78083,6.98652 -14.01536,9.66628 -9.54665,2.77033 -22.62482,4.36816 -36.10308,4.36816 0,0 0,0 0,0"
       style="fill:none;fill-opacity:1;stroke:#000000;stroke-width:1;stroke-linecap:round;stroke-miterlimit:4;stroke-dasharray:1, 2;stroke-dashoffset:0;stroke-opacity:1" />
    <path
       inkscape:connector-curvature="0"
       id="path5286-9-1"
       d="m 309.40217,139.84629 c -2.49236,0 -4.51595,-0.56252 -4.5198,-1.25099 -0.004,-0.68254 1.98217,-1.23155 4.43579,-1.23155 2.45361,0 4.47675,0.54901 4.51914,1.23155 0.0427,0.68847 -1.94278,1.25099 -4.43513,1.25099 0,0 0,0 0,0"
       style="fill:#ffffff;fill-opacity:1;stroke:#000000;stroke-width:1;stroke-linecap:round;stroke-miterlimit:4;stroke-dasharray:none;stroke-dashoffset:0;stroke-opacity:1" />
    <path
       inkscape:connector-curvature="0"
       id="path5286-3-1-7"
       d="m 288.91716,147.54116 c -1.25455,0 -2.44244,-0.14583 -3.30026,-0.40477 -0.85517,-0.25815 -1.31027,-0.60699 -1.26738,-0.96918 0.0887,-0.74917 2.24323,-1.35155 4.81313,-1.35155 2.56989,0 4.61596,0.60238 4.56966,1.35155 -0.0224,0.36219 -0.5403,0.71103 -1.44197,0.96918 -0.90447,0.25894 -2.11863,0.40477 -3.37318,0.40477 0,0 0,0 0,0"
       style="fill:#ffffff;fill-opacity:1;stroke:#000000;stroke-width:1;stroke-linecap:round;stroke-miterlimit:4;stroke-dasharray:none;stroke-dashoffset:0;stroke-opacity:1" />
    <path
       inkscape:connector-curvature="0"
       id="path5286-6-2-9"
       d="m 242.81567,125.33761 c -2.26596,0 -3.89379,-0.46512 -3.63769,-1.03479 0.2541,-0.5652 2.26955,-1.02014 4.50345,-1.02014 2.23389,0 3.866,0.45494 3.64386,1.02014 -0.22392,0.56967 -2.24366,1.03479 -4.50962,1.03479 0,0 0,0 0,0"
       style="fill:#ffffff;fill-opacity:1;stroke:#000000;stroke-width:1;stroke-linecap:round;stroke-miterlimit:4;stroke-dasharray:none;stroke-dashoffset:0;stroke-opacity:1" />
    <path
       inkscape:connector-curvature="0"
       id="path5286-5-7-5"
       d="m 297.1235,126.51964 c -2.28441,0 -4.10074,-0.47271 -4.0572,-1.05163 0.0432,-0.57436 1.90342,-1.03664 4.15524,-1.03664 2.25182,0 4.06864,0.46228 4.0579,1.03664 -0.0108,0.57892 -1.87154,1.05163 -4.15594,1.05163 0,0 0,0 0,0"
       style="fill:#ffffff;fill-opacity:1;stroke:#000000;stroke-width:1;stroke-linecap:round;stroke-miterlimit:4;stroke-dasharray:none;stroke-dashoffset:0;stroke-opacity:1" />
    <path
       inkscape:connector-curvature="0"
       id="path5286-3-3-0-6"
       d="m 230.50055,146.24781 c -2.59224,0 -4.4073,-0.60842 -4.05694,-1.35285 0.34724,-0.73776 2.69394,-1.331 5.2443,-1.331 2.55036,0 4.37215,0.59324 4.06661,1.331 -0.30832,0.74443 -2.66173,1.35285 -5.25397,1.35285 0,0 0,0 0,0"
       style="fill:#ffffff;fill-opacity:1;stroke:#000000;stroke-width:1;stroke-linecap:round;stroke-miterlimit:4;stroke-dasharray:none;stroke-dashoffset:0;stroke-opacity:1" />
    <path
       inkscape:connector-curvature="0"
       id="path5286-3-6-9-8"
       d="m 363.89768,182.97423 c -3.16531,0 -5.97336,-0.90644 -6.269,-2.0135 -0.29239,-1.09499 1.98846,-1.97393 5.09155,-1.97393 3.1031,0 5.90303,0.87894 6.25731,1.97393 0.35818,1.10706 -1.91455,2.0135 -5.07986,2.0135 0,0 0,0 0,0"
       style="fill:#ffffff;fill-opacity:1;stroke:#000000;stroke-width:1;stroke-linecap:round;stroke-miterlimit:4;stroke-dasharray:none;stroke-dashoffset:0;stroke-opacity:1" />
    <path
       inkscape:connector-curvature="0"
       id="path5286-67-7-7"
       d="m 326.28263,176.82865 c -1.00655,0.98922 -4.19888,1.4828 -7.11072,1.09479 -1.39428,-0.18579 -2.528,-0.55262 -3.15148,-1.01836 -0.62055,-0.46353 -0.68386,-0.98644 -0.18017,-1.45362 1.04122,-0.96574 4.1848,-1.44048 7.04057,-1.06768 1.37531,0.17954 2.50681,0.536 3.14594,0.99237 0.64212,0.45851 0.73565,0.98096 0.25586,1.4525 0,0 0,0 0,0"
       style="fill:none;fill-opacity:1;stroke:#000000;stroke-width:1;stroke-linecap:round;stroke-miterlimit:4;stroke-dasharray:1, 2;stroke-dashoffset:0;stroke-opacity:1" />
    <path
       inkscape:connector-curvature="0"
       id="path5286-3-5-0-6"
       d="m 339.20148,144.19936 c -0.37601,0.32953 -1.20559,0.59559 -2.30654,0.73881 -1.10288,0.14347 -2.38425,0.15149 -3.5593,0.0222 -1.17319,-0.12905 -2.14068,-0.38397 -2.68937,-0.70784 -0.54653,-0.3226 -0.63206,-0.68681 -0.24067,-1.01249 0.81004,-0.67404 3.40913,-1.00578 5.81828,-0.74525 2.41687,0.26138 3.75574,1.02256 2.9776,1.70453 0,0 0,0 0,0"
       style="fill:none;fill-opacity:1;stroke:#000000;stroke-width:1;stroke-linecap:round;stroke-miterlimit:4;stroke-dasharray:1, 2;stroke-dashoffset:0;stroke-opacity:1" />
    <path
       inkscape:connector-curvature="0"
       id="path5286-67-6-5-6"
       d="m 301.63007,168.8699 c -1.08457,0.91061 -4.20603,1.36483 -6.95312,1.00777 -1.31554,-0.17099 -2.35978,-0.50864 -2.90291,-0.9374 -0.54068,-0.42681 -0.53967,-0.90838 -0.001,-1.33873 1.11381,-0.88985 4.1882,-1.32742 6.88539,-0.9838 1.29879,0.16546 2.34218,0.49394 2.90079,0.91442 0.56113,0.42237 0.588,0.90355 0.0709,1.33774 0,0 0,0 0,0"
       style="fill:none;fill-opacity:1;stroke:#000000;stroke-width:1;stroke-linecap:round;stroke-miterlimit:4;stroke-dasharray:1, 2;stroke-dashoffset:0;stroke-opacity:1" />
    <path
       inkscape:connector-curvature="0"
       id="path5286-67-6-0-4-9"
       d="m 371.78336,158.96076 c -0.70677,0.8173 -3.50325,1.22482 -6.23144,0.90448 -1.30669,-0.15343 -2.41557,-0.45645 -3.0822,-0.8413 -0.66377,-0.38321 -0.83378,-0.81569 -0.47605,-1.20227 0.73999,-0.79963 3.49978,-1.19298 6.17866,-0.88408 1.28978,0.14873 2.39483,0.44394 3.07259,0.82175 0.68065,0.37943 0.87556,0.81157 0.53844,1.20142 0,0 0,0 0,0"
       style="fill:none;fill-opacity:1;stroke:#000000;stroke-width:1;stroke-linecap:round;stroke-miterlimit:4;stroke-dasharray:1, 2;stroke-dashoffset:0;stroke-opacity:1" />
    <path
       id="rect13264-6"
       d="m 401.88557,103.30973 c 0,0 110.24254,138.73691 110.24254,138.73691 0,0 -472.69494,0 -472.69494,0 0,0 140.13363,-138.73691 140.13363,-138.73691 0,0 222.31877,0 222.31877,0"
       style="fill:none;fill-opacity:1;stroke:#000000;stroke-width:0.5;stroke-linecap:round;stroke-miterlimit:4;stroke-dasharray:none;stroke-dashoffset:0;stroke-opacity:1"
       inkscape:connector-curvature="0" />
  </g>
</svg>
